<svg width="165" height="51" viewBox="0 0 165 51" fill="none" xmlns="http://www.w3.org/2000/svg">
<g clip-path="url(#clip0)">
<rect width="165" height="51" fill="white"/>
<path d="M78.0045 37.893C79.6785 37.893 80.943 37.533 81.798 36.813C82.662 36.084 83.094 35.0625 83.094 33.7485C83.094 33.1455 82.977 32.6055 82.743 32.1285C82.518 31.6425 82.1895 31.233 81.7575 30.9C81.3255 30.558 80.7945 30.297 80.1645 30.117C79.5345 29.937 78.819 29.847 78.018 29.847H73.212V37.893H78.0045ZM73.212 20.991V28.8345H77.343C78.225 28.8345 78.9765 28.722 79.5975 28.497C80.2275 28.272 80.7405 27.975 81.1365 27.606C81.5415 27.237 81.8385 26.8185 82.0275 26.3505C82.2165 25.8825 82.311 25.401 82.311 24.906C82.311 23.619 81.9015 22.647 81.0825 21.99C80.2725 21.324 79.017 20.991 77.316 20.991H73.212ZM77.316 19.8975C78.405 19.8975 79.35 20.0055 80.151 20.2215C80.952 20.4375 81.6135 20.757 82.1355 21.18C82.6575 21.594 83.0445 22.1025 83.2965 22.7055C83.5485 23.3085 83.6745 23.9925 83.6745 24.7575C83.6745 25.2615 83.5845 25.7475 83.4045 26.2155C83.2335 26.6835 82.9815 27.1155 82.6485 27.5115C82.3245 27.9075 81.9195 28.254 81.4335 28.551C80.9565 28.839 80.4075 29.0595 79.7865 29.2125C81.2895 29.4285 82.4415 29.928 83.2425 30.711C84.0525 31.485 84.4575 32.5065 84.4575 33.7755C84.4575 34.5855 84.3135 35.3145 84.0255 35.9625C83.7375 36.6105 83.319 37.1595 82.77 37.6095C82.221 38.0595 81.546 38.406 80.745 38.649C79.944 38.883 79.035 39 78.018 39H71.8215V19.8975H77.316ZM94.1191 29.334C94.9651 29.334 95.7211 29.235 96.3871 29.037C97.0621 28.83 97.6291 28.5375 98.0881 28.1595C98.5561 27.7815 98.9116 27.327 99.1546 26.796C99.3976 26.265 99.5191 25.6665 99.5191 25.0005C99.5191 23.6415 99.0736 22.6335 98.1826 21.9765C97.3006 21.3195 96.0091 20.991 94.3081 20.991H90.8116V29.334H94.1191ZM102.597 39H101.409C101.256 39 101.126 38.9775 101.018 38.9325C100.919 38.8785 100.824 38.784 100.734 38.649L94.6051 30.9C94.5331 30.801 94.4566 30.7155 94.3756 30.6435C94.3036 30.5715 94.2181 30.5175 94.1191 30.4815C94.0291 30.4365 93.9166 30.405 93.7816 30.387C93.6556 30.369 93.4981 30.36 93.3091 30.36H90.8116V39H89.4211V19.8975H94.3081C96.5041 19.8975 98.1466 20.325 99.2356 21.18C100.334 22.026 100.883 23.2725 100.883 24.9195C100.883 25.6485 100.757 26.3145 100.505 26.9175C100.253 27.5205 99.8881 28.0515 99.4111 28.5105C98.9431 28.9605 98.3716 29.3295 97.6966 29.6175C97.0306 29.9055 96.2791 30.099 95.4421 30.198C95.6581 30.333 95.8516 30.513 96.0226 30.738L102.597 39ZM116.662 32.061L112.774 22.4085C112.639 22.0935 112.508 21.7155 112.382 21.2745C112.328 21.4905 112.27 21.6975 112.207 21.8955C112.144 22.0845 112.076 22.26 112.004 22.422L108.116 32.061H116.662ZM120.887 39H119.821C119.695 39 119.591 38.9685 119.51 38.9055C119.429 38.8335 119.366 38.7435 119.321 38.6355L117.08 33.087H107.698L105.457 38.6355C105.421 38.7345 105.358 38.82 105.268 38.892C105.178 38.964 105.07 39 104.944 39H103.891L111.707 19.8975H113.071L120.887 39ZM139.336 19.8975V39H138.688C138.571 39 138.472 38.982 138.391 38.946C138.319 38.901 138.247 38.829 138.175 38.73L125.768 22.152C125.795 22.422 125.809 22.6785 125.809 22.9215V39H124.594V19.8975H125.282C125.408 19.8975 125.503 19.9155 125.566 19.9515C125.638 19.9785 125.714 20.046 125.795 20.154L138.175 36.6915C138.148 36.4215 138.134 36.165 138.134 35.922V19.8975H139.336Z" fill="black"/>
<path d="M162.202 29.2395C162.202 30.6705 161.963 31.9845 161.486 33.1815C161.009 34.3785 160.339 35.409 159.475 36.273C158.611 37.137 157.571 37.8075 156.356 38.2845C155.141 38.7615 153.791 39 152.306 39H144.868V19.479H152.306C153.791 19.479 155.141 19.722 156.356 20.208C157.571 20.685 158.611 21.3555 159.475 22.2195C160.339 23.0745 161.009 24.1005 161.486 25.2975C161.963 26.4945 162.202 27.8085 162.202 29.2395ZM158.476 29.2395C158.476 28.1685 158.332 27.21 158.044 26.364C157.765 25.509 157.355 24.789 156.815 24.204C156.284 23.61 155.636 23.1555 154.871 22.8405C154.115 22.5255 153.26 22.368 152.306 22.368H148.513V36.111H152.306C153.26 36.111 154.115 35.9535 154.871 35.6385C155.636 35.3235 156.284 34.8735 156.815 34.2885C157.355 33.6945 157.765 32.9745 158.044 32.1285C158.332 31.2735 158.476 30.3105 158.476 29.2395Z" fill="#F16D7F"/>
<circle cx="36.0547" cy="26.5625" r="17" transform="rotate(-65.6372 36.0547 26.5625)" stroke="#F5E5E7" stroke-width="7"/>
<rect x="-0.185791" y="32.6554" width="6" height="31" transform="rotate(-65.6372 -0.185791 32.6554)" fill="#F5E5E7"/>
<rect x="6" y="12.8876" width="6" height="23.7526" transform="rotate(-28.7685 6 12.8876)" fill="#FCBAC3"/>
<circle cx="37.5" cy="30.5" r="17" stroke="#F38191" stroke-width="7"/>
<rect x="17" width="6" height="31" fill="#F38191"/>
</g>
<defs>
<clipPath id="clip0">
<rect width="165" height="51" fill="white"/>
</clipPath>
</defs>
</svg>
